<?xml version="1.0" encoding="utf-8"?>
<!-- Generator: Adobe Illustrator 16.0.0, SVG Export Plug-In . SVG Version: 6.00 Build 0)  -->
<!DOCTYPE svg PUBLIC "-//W3C//DTD SVG 1.1//EN" "http://www.w3.org/Graphics/SVG/1.1/DTD/svg11.dtd">
<svg version="1.1" id="Layer_12" xmlns="http://www.w3.org/2000/svg" xmlns:xlink="http://www.w3.org/1999/xlink" x="0px" y="0px"
	 width="625px" height="625px" viewBox="0 0 625 625" enable-background="new 0 0 625 625" xml:space="preserve">
<g>
	<path d="M329.316,293.083c-12.164,0.817-24.302,1.438-35.97,5.533c-24.967,8.765-36.689,31.94-28.764,57.095
		c4.292,13.625,14.452,20.855,28.737,20.225c13.762-0.609,23.069-8.463,30.159-19.388c8.974-13.829,10.613-29.438,10.375-43.716
		c0-6.145-0.124-10.579,0.039-15.007C334.016,294.479,333.355,292.812,329.316,293.083z"/>
	<path d="M0,0v625h625V0H0z M334.016,246.103c-0.744-7.686,0.2-15.518-1.859-23.135c-2.388-8.839-7.52-15.225-16.054-18.885
		c-21.84-9.367-46.604,1.863-53.128,24.586c-2.223,7.739-5.817,10.974-14.3,9.608c-12.297-1.981-24.782-2.799-37.187-4.116
		c-9.989-1.063-12.708-4.636-10.448-14.346c6.093-26.179,20.882-45.944,45.395-57.066c35.937-16.306,72.954-17.763,109.949-3.732
		c27.222,10.324,41.748,30.749,44.271,59.829c1.729,19.949,0.447,39.922,0.941,56.506c0,19.736,0.367,36.113-0.105,52.465
		c-0.462,15.969,4.163,29.848,13.884,42.477c10.072,13.084,9.713,13.768-3.055,24.707c-8.633,7.398-17.182,14.896-25.77,22.35
		c-8.972,7.787-12.254,7.712-21.244-0.38c-5.173-4.657-9.823-9.765-13.886-15.425c-7.92-11.029-8.163-11.252-17.704-2.172
		c-24.112,22.944-53.267,28.766-84.821,24.006c-33.213-5.012-54.282-30.31-56.376-65.409c-2.886-48.373,22.478-81.687,71.411-93.684
		c20.257-4.964,40.93-7.214,61.668-8.714C332.127,255.099,334.686,253.013,334.016,246.103z M461.244,417.065
		c-5.132,4.225-10.299,8.439-15.741,12.245c-41.761,29.184-98.105,46.284-160.823,46.265
		c-47.299-0.426-98.696-16.103-144.993-48.085c-2.735-1.889-5.443-3.83-8.038-5.904c-1.525-1.219-3.1-2.864-1.693-4.939
		c1.244-1.834,3.361-1.714,5.296-1.024c1.562,0.559,3.055,1.302,4.586,1.949c105.177,44.462,209.088,42.2,311.684-8.461
		c0.993-0.491,1.986-0.985,2.963-1.506c3.448-1.837,6.956-2.747,9.581,1.066C466.664,412.445,463.802,414.96,461.244,417.065z
		 M495.246,398.05c-1.287,15.733-6.035,30.346-16.212,42.759c-1.801,2.197-3.67,6.045-7.116,4.239
		c-3.349-1.756-0.454-5.012,0.172-7.413c2.718-10.423,6.192-20.691,6.763-31.549c0.56-10.663-2.079-13.449-12.817-13.153
		c-10.811,0.299-21.415,2.376-32.011,4.436c-2.236,0.435-5.33,2.333-6.627-0.833c-1.159-2.834,1.877-4.302,3.794-5.701
		c13.27-9.69,28.561-12.739,41.383-13.321C494.172,377.451,496.729,379.932,495.246,398.05z"/>
</g>
</svg>
