<?xml version="1.0" encoding="utf-8"?>
<!-- Generator: Adobe Illustrator 16.0.0, SVG Export Plug-In . SVG Version: 6.00 Build 0)  -->
<!DOCTYPE svg PUBLIC "-//W3C//DTD SVG 1.1//EN" "http://www.w3.org/Graphics/SVG/1.1/DTD/svg11.dtd">
<svg version="1.1" xmlns="http://www.w3.org/2000/svg" xmlns:xlink="http://www.w3.org/1999/xlink" x="0px" y="0px" width="625px"
	 height="625px" viewBox="0 0 625 625" enable-background="new 0 0 625 625" xml:space="preserve">
<g id="Layer_1" display="none">
	<path display="inline" fill-rule="evenodd" clip-rule="evenodd" d="M0,0v625h625V0H0z M476.708,415.659
		c-30.201,43.768-73.412,64.543-125.355,65.452c-74.867,1.307-149.775,0.356-224.667,0.345c-1.494,0-2.988-0.304-4.396-0.457
		c-3.366-17.145-3.559-18.829,11.709-25.847c13.662-6.279,19.484-14.896,16.874-29.741c-0.93-5.286-0.149-10.875-0.149-17.493
		c9.041,0,17.243,0,25.447,0c21.485,0,42.972,0.155,64.455-0.105c5.469-0.067,8.723,1.102,11.308,6.589
		c6.894,14.634,18.297,22.484,35.26,21.16c7.932-0.619,15.969-0.439,23.928-0.04c18.938,0.954,33.315-7.148,43.77-22.263
		c3.457-4.997,7.165-6.977,12.842-6.178c0.903,0.126,1.84,0.017,2.761,0.017c20.567-0.006,20.567-0.006,27.915-19.745
		c30.938,0,61.297,0,94.011,0C486.88,397.443,482.607,407.112,476.708,415.659z M503.402,337.332
		c-0.32,3.972-0.828,7.938-1.479,11.868c-0.598,3.594-1.508,7.136-2.438,11.422c-32.389,0-63.939,0-94.793,0
		c0-25.436,0.553-50.511-0.217-75.544c-0.43-14.028-2.285-28.131-4.836-41.953c-5.532-29.987-23.577-48.822-54.112-51.723
		c-31.63-3.004-63.524-3.191-96.542-4.666c0,59.175,0,116.139,0,173.677c-33.205,0-65.248,0-98.164,0c0-3.748,0-7.053,0-10.356
		c0-53.747-0.129-107.494,0.163-161.24c0.037-6.78-1.827-11.008-8.079-13.533c-2.815-1.139-5.18-3.457-8.023-4.451
		c-12.625-4.417-16.813-13.036-12.412-26.952c1.813-0.081,4.729-0.325,7.646-0.326c72.789-0.019,145.593-0.947,218.362,0.279
		c60.172,1.014,108.104,25.798,137.049,80.556C504.218,259.753,506.538,298.245,503.402,337.332z"/>
</g>
<g id="Layer_1_copy">
	<g>
		<path fill-rule="evenodd" clip-rule="evenodd" d="M0,0v625h625V0H0z M425.299,300.75c-9.863,17.956-21.426,34.979-32.225,52.42
			c-33.187,45.705-61.115,93.822-69.316,150.998c-1.312,7.836-2.625,15.674-3.938,23.51c-2.523,1.32-5.047,2.639-7.57,3.959
			c-3.156-3.545-6.311-7.09-9.466-10.635c-3.316-64.254-33.58-117.102-70.715-167.041c-0.039-1.182-0.079-2.361-0.118-3.543
			c-11.711-16.373-23.42-32.75-35.14-49.107c-4.282-11.917-8.556-23.851-12.83-35.785c-10.824-39.672-4.907-77.115,15.019-112.692
			c1.578-2.219,3.157-4.436,4.737-6.653c26.655-29.448,57.55-50.951,98.931-52.818c-6.149,2.872-10.168,6.653-12.757,11.089
			c2.589-4.436,6.608-8.215,12.757-11.087c6.687,0.031,13.377,0.061,20.064,0.092c2.26,0.468,4.52,0.937,6.779,1.407
			c52.996,2.45,103.931,50.063,114.397,104.986C450.856,236.311,442.557,269.34,425.299,300.75z"/>
		<path fill-rule="evenodd" clip-rule="evenodd" d="M314.446,223.566c0,8.04,0,14.662,0,22.029
			c10.116,0.483,19.663,0.937,29.506,1.405c-5.257,18.549-22.876,26.879-40.957,20.73c-19.335-6.576-29.16-27.96-21.625-47.066
			c8.528-21.623,29.695-27.521,55.096-15.371c5.537-4.916,11.081-9.815,16.692-14.773c-26.26-23.578-64.042-20.31-85.281,5.567
			c-25.039,30.504-15.6,81.021,31.678,95.993c79.399,14.57,70.77-68.515,70.77-68.515
			C351.63,223.566,332.934,223.566,314.446,223.566z"/>
	</g>
</g>
<g id="Layer_1_copy_2" display="none">
	<g display="inline">
		<path fill-rule="evenodd" clip-rule="evenodd" d="M0,0v625h625V0H0z M168.878,265.743c-1.231,0.536-2.092,3.224-2.144,4.94
			c-0.234,7.752-0.123,15.513-0.123,23.272c0.002,66.642,0.01,133.283,0.005,199.924c0,7.361-4.158,13.085-10.94,15.186
			c-5.904,1.829-12.609-0.131-15.628-5.382c-1.483-2.58-2.094-5.998-2.099-9.038c-0.113-70.819-0.087-141.639-0.087-212.458
			c0-1.392-0.201-2.821,0.042-4.17c1.412-7.843-2.133-12.004-9.05-15.695c-9.629-5.141-16.495-13.331-19.175-24.444
			c-0.364-1.511-1.913-2.735-2.913-4.092c0-34.616,0-69.232,0-103.849c1.384-1.104,2.935-2.054,4.117-3.343
			c2.555-2.785,5.504-4.144,9.016-2.339c3.435,1.765,6.166,4.121,6.139,8.674c-0.093,16.312-0.084,32.625,0.147,48.935
			c0.035,2.471,0.999,6.708,2.317,7.043c3.697,0.938,7.842,0.529,11.714-0.023c0.686-0.098,1.277-3.436,1.289-5.283
			c0.1-15.716-0.224-31.44,0.272-47.14c0.11-3.497,2.349-7.449,4.763-10.165c1.554-1.749,5.912-2.972,7.77-2.016
			c2.723,1.401,5.779,4.786,6.133,7.643c0.898,7.253,0.396,14.684,0.414,22.042c0.023,9.351,0.379,18.721-0.122,28.043
			c-0.335,6.215,1.952,8,7.845,7.711c7.823-0.384,7.846-0.068,7.849-7.962c0.003-14.919-0.316-29.851,0.216-44.751
			c0.132-3.714,2.248-8.002,4.781-10.842c4.267-4.784,11.766-2.703,13.726,3.445c0.886,2.776,1.082,5.863,1.092,8.811
			c0.095,27.054-0.004,54.108,0.124,81.162C196.467,240.55,189.175,256.902,168.878,265.743z M459.802,403.611
			c-0.014,2.015-0.936,4.298-2.109,5.988c-15.17,21.854-34.189,39.556-58.163,51.276c-11.938,5.838-24.312,11.146-37.006,14.983
			c-14.464,4.374-29.69,4.47-44.823,4.523c-16.22,0.056-32-2.435-47.312-7.367c-18.129-5.843-35.266-14.191-49.875-26.442
			c-10.728-8.997-20.183-19.548-29.858-29.734c-1.955-2.058-3.306-5.589-3.322-8.449c-0.226-41.964-0.271-83.93,0.026-125.892
			c0.019-2.667,2.71-5.878,5-7.87c10.238-8.905,17.715-19.332,21.889-32.469c5.286-16.638,1.872-33.536,2.624-50.287
			c0.231-5.152,1.772-8.22,5.866-11.204c15.153-11.046,31.687-19.461,49.428-25.09c22.189-7.041,45.308-9.304,68.285-6.412
			c39.729,5.001,73.824,22.152,101.884,51.097c5.189,5.354,5.199,10.91,4.183,17.443c-2.101,13.503-3.737,27.078-5.671,40.608
			c-1.151,8.051-2.503,16.073-4.429,24.195c-11.111-35.91-33.85-61.35-67.426-76.845c-21.781-10.05-45.04-12.792-68.509-8.13
			c-70.662,14.034-99.693,73.8-98.146,119.059c2.118,61.937,43.457,100.337,85.988,112.114
			c36.209,10.026,70.987,4.886,102.036-17.507c30.823-22.229,46.558-53.312,50.373-90.581c6.555,4.34,12.005,7.744,17.177,11.532
			c1.165,0.854,1.892,3.046,1.899,4.628C459.933,359.058,459.949,381.335,459.802,403.611z M419.127,315.272
			c0.215,55.582-45.373,98.132-98.631,97.543c-52.894-0.585-99.469-42.701-97.021-103.377c1.968-48.801,42.137-92.528,97.799-92.731
			C376.183,216.506,420.384,261.505,419.127,315.272z M510.226,501.167c-2.564,2.267-4.819,5.11-7.752,6.695
			c-8.912,4.814-21.373,0.08-21.231-13.917c0.524-52.072,0.223-104.153,0.225-156.231c0-4.57-0.03-9.142-0.067-13.713
			c-0.078-9.466-0.081-9.533-9.358-10.053c-5.461-0.309-9.866-2.115-13.128-6.847c-4.088-5.932-2.445-12.321-1.691-18.445
			c1.402-11.384,3.73-22.65,5.339-34.014c3.132-22.136,6.114-44.296,8.999-66.467c1.506-11.583,2.612-23.217,4.015-34.814
			c1.045-8.647,2.082-17.305,3.489-25.898c0.97-5.926,7.127-11.196,13.258-12.063c5.978-0.846,11.821,2.385,15.098,8.142
			c0.632,1.111,1.855,1.885,2.807,2.815C510.226,251.292,510.226,376.23,510.226,501.167z"/>
		<path fill-rule="evenodd" clip-rule="evenodd" d="M340.605,304.528h-25.349c-0.701,0-1.121-0.561-1.121-1.12v-10.504
			c0-0.561,0.42-1.26,1.121-1.26h33.189v-17.786h-18.346v-14.845h-16.245v14.845h-11.903c-5.322,0-8.963,3.5-8.963,8.963v30.95
			c0,5.461,3.641,8.963,8.963,8.963h25.349c0.699,0,1.259,0.56,1.259,0.98v10.644c0,0.56-0.56,1.121-1.259,1.121h-34.312v17.926
			h20.867v14.984h16.245v-14.984h10.505c5.181,0,8.822-3.781,8.822-8.963V313.35C349.428,308.168,345.786,304.528,340.605,304.528z"
			/>
	</g>
</g>
<g id="Layer_1_copy_3" display="none">
	<g display="inline">
		<path fill-rule="evenodd" clip-rule="evenodd" d="M0,0v625h625V0H0z M142.592,479.96L137.701,493
			c-4.347-1.085-7.064-3.802-8.149-8.15v-45.637l3.26-3.259l9.78,9.779V479.96z M142.592,422.914l-9.78,9.779l-3.26-3.26v-42.377
			l13.04,4.89V422.914z M170.3,429.434l-6.521,6.521l-6.52-6.521v-37.487h13.04V429.434z M142.754,388.686l-13.039-4.89
			c1.085-4.345,3.802-7.062,8.149-8.149h48.734l-4.89,13.039H142.754z M198.008,484.85c-1.088,4.349-3.805,7.065-8.15,8.15
			l-4.889-13.04v-34.227l9.779-9.779l3.26,3.259V484.85z M198.008,429.434l-3.26,3.26l-9.779-9.779v-34.229l4.889-13.039
			c4.346,1.088,7.062,3.805,8.15,8.149V429.434z M227.345,483.221c-1.088,4.347-3.805,7.065-8.15,8.15l-4.89-13.04v-34.229
			l9.78-9.779l3.26,3.26V483.221z M227.345,429.434l-3.26,3.26l-9.78-9.779v-34.229l4.89-13.039c4.346,1.088,7.062,3.805,8.15,8.149
			V429.434z M220.613,338.618c-17.827-0.194-31.482-14.257-31.331-32.271c0.146-17.529,14.949-32.294,32.037-31.954
			c17.972,0.357,32.166,15.124,31.796,33.079C252.745,325.36,238.707,338.812,220.613,338.618z M256.683,388.686v34.229
			l-9.779,9.779l-3.261-3.26v-45.638c1.086-4.345,3.803-7.062,8.15-8.149L256.683,388.686z M243.643,484.85v-45.637l3.261-3.259
			l9.779,9.779v34.227l-4.89,13.04C247.445,491.915,244.729,489.198,243.643,484.85z M303.949,493h-48.896l4.89-13.04h39.118
			l13.039,4.89C311.012,489.198,308.294,491.915,303.949,493z M336.547,493c-4.348-1.085-7.065-3.802-8.15-8.15l13.039-4.89h44.007
			l4.891,13.04H336.547z M331.655,435.954l9.78,9.779v30.968l-13.039,4.89v-42.378L331.655,435.954z M328.396,429.434v-42.377
			l13.039,4.89v30.968l-9.78,9.779L328.396,429.434z M383.813,440.844h-42.378l-6.52-6.521l6.52-6.52h42.378l6.52,6.52
			L383.813,440.844z M385.442,388.686h-43.844l-13.04-4.89c1.087-4.345,3.802-7.062,8.15-8.149h53.624L385.442,388.686z
			 M371.682,306.715c0.03-17.563,14.617-32.418,31.732-32.318c17.973,0.106,32.269,14.679,32.094,32.713
			c-0.173,17.925-14.093,31.597-32.08,31.508C385.467,338.53,371.651,324.646,371.682,306.715z M419.671,422.914l-9.779,9.779
			l-3.262-3.26v-42.377l13.041,4.89V422.914z M462.048,427.804l6.52,6.52l-6.52,6.521h-42.377l-6.521-6.521l6.521-6.52H462.048z
			 M414.779,493c-4.346-1.085-7.063-3.802-8.149-8.15l13.041-4.89h39.116l4.891,13.04H414.779z M475.086,484.85
			c-1.086,4.349-3.805,7.065-8.15,8.15l-4.888-13.04v-34.227l9.779-9.779l3.259,3.259V484.85z M462.048,388.686h-42.215
			l-13.038-4.89c1.083-4.345,3.802-7.062,8.148-8.149h51.992c4.346,1.088,7.064,3.805,8.15,8.149L462.048,388.686z M495.448,273.344
			c-0.447,4.532-0.896,9.064-1.342,13.596c-0.741,7.529-5.709,12.341-13.208,12.451c-8.925,0.128-17.852,0.03-26.458,0.03
			c-3.696-7.5-6.333-15.363-10.974-21.777c-11.828-16.345-28.389-23.292-48.346-19.821c-19.623,3.412-32.547,15.583-38.624,34.273
			c-1.998,6.141-4.577,7.734-10.686,7.636c-23.03-0.37-46.07-0.199-69.106-0.102c-3.875,0.018-6.124-0.532-7.55-5.074
			c-7.318-23.32-25.453-37.438-47.354-37.628c-22.592-0.197-40.666,13.61-48.646,37.157c-0.521,1.536-1.045,3.07-1.792,5.265
			c-10.022,0-20.356,0.926-30.375-0.445c-4.158-0.57-7.646-6.051-11.437-9.297c0-26.019,0-52.039,0-78.058
			c4.473-7.295,10.709-9.875,19.493-10.083c36.255-0.859,25.093,4.521,48.229-24.767c9.564-12.106,18.218-24.957,28.183-36.707
			c3.274-3.862,9.34-7.459,14.19-7.541c34.924-0.587,69.875-0.692,104.786,0.235c6.115,0.162,13.502,4.586,17.854,9.3
			c13.388,14.507,26.035,29.767,38.089,45.413c7.537,9.786,16.056,14.66,28.722,14.676c20.955,0.025,39.1,7.648,52.868,24.187
			c8.245,9.902,11.587,21.688,13.482,34.073C495.448,264.67,495.448,269.009,495.448,273.344z"/>
		<path fill-rule="evenodd" clip-rule="evenodd" d="M248.246,159.695c-1.747,0.025-4.098,0.748-5.118,2.002
			c-10.099,12.419-19.976,25.017-31.211,39.201c25.67,0,48.689,0,72.132,0c0-13.858,0-27.228,0-41.294
			C271.86,159.604,260.052,159.522,248.246,159.695z"/>
		<path fill-rule="evenodd" clip-rule="evenodd" d="M338.059,159.914c-8.298-0.475-16.64-0.173-25.209-0.173
			c0,14.039,0,27.615,0,41.396c21.201,0,41.668,0,64.398,0c-11.273-13.582-21.131-25.726-31.376-37.533
			C344.119,161.58,340.765,160.068,338.059,159.914z"/>
	</g>
</g>
<g id="Layer_1_copy_4" display="none">
	<g display="inline">
		<path fill-rule="evenodd" clip-rule="evenodd" d="M242.854,298.373c28.25,0.173,56.504,0.703,84.747,0.379
			c19.596-0.225,35.942-7.965,47.434-24.406c2.244-3.21,3.878-6.847,5.99-10.641c-12.34-0.074-23.79-0.143-35.461-0.213
			c-2.817,7.43-2.817,7.43-10.575,7.385c-0.348-0.002-0.701,0.037-1.041-0.013c-2.14-0.315-3.543,0.424-4.857,2.301
			c-3.979,5.677-9.42,8.702-16.562,8.299c-3.002-0.168-6.033-0.255-9.025-0.04c-6.402,0.461-10.686-2.526-13.253-8.061
			c-0.963-2.076-2.188-2.524-4.251-2.511c-8.104,0.049-16.208-0.058-24.312-0.107c-3.095-0.019-6.188-0.037-9.599-0.058
			c-0.016,2.497-0.322,4.604,0.017,6.6c0.951,5.605-1.265,8.842-6.433,11.18c-5.774,2.612-5.706,3.248-4.476,9.723
			C241.729,298.252,242.291,298.37,242.854,298.373z"/>
		<path fill-rule="evenodd" clip-rule="evenodd" d="M246.65,181.222c1.07,0.381,1.956,1.262,3.016,1.697
			c2.354,0.967,3.046,2.566,3.017,5.124c-0.231,20.272-0.305,40.546-0.426,60.821c-0.008,1.245-0.016,2.492-0.023,3.906
			c12.416,0.074,24.503,0.147,37.027,0.222c0.131-21.704,0.26-43.192,0.394-65.513c12.451,0.631,24.481,0.775,36.406,1.979
			c11.512,1.164,18.275,8.309,20.294,19.633c0.932,5.22,1.599,10.544,1.729,15.836c0.234,9.445-0.031,18.902-0.089,28.496
			c11.639,0.07,23.538,0.141,35.757,0.214c0.359-1.614,0.711-2.948,0.945-4.302c0.254-1.481,0.454-2.976,0.584-4.474
			c1.271-14.737,0.483-29.261-6.487-42.643c-10.794-20.721-28.818-30.178-51.513-30.697c-27.447-0.626-54.911-0.442-82.367-0.6
			c-1.101-0.006-2.201,0.08-2.885,0.106C240.337,176.267,241.897,179.527,246.65,181.222z"/>
		<path fill-rule="evenodd" clip-rule="evenodd" d="M0,0v625h625V0H0z M448.199,217.818c14.328,10.144,26.993,19.108,41.937,29.687
			c-14.451,11.253-27.046,21.056-41.228,32.1c-0.404-3.827-0.688-5.285-0.69-6.747C448.188,255.395,448.199,237.932,448.199,217.818
			z M194.646,132.433c0.002-1.164,0.418-2.329,0.822-4.433c78.623,0,156.41,0,235.472,0c0,14.021,0,27.45,0,40.879
			c0,38.149,0.318,76.305-0.351,114.442c-0.098,5.499-3.539,12.633-7.804,16.08c-23.255,18.803-47.433,36.46-70.876,55.041
			c-6.187,4.907-10.157,5.59-16.712,0.304c-15.449-12.455-29.066-12.638-44.576-0.26c-7.051,5.624-11.211,4.772-17.728-0.409
			c-23.094-18.361-46.88-35.854-69.962-54.23c-3.923-3.122-8-8.963-8.051-13.588C194.346,234.987,194.581,183.71,194.646,132.433z
			 M176.686,217.984c0,21.063,0,39.975,0,61.695c-14.3-11.103-27.133-21.068-41.351-32.106
			C149.82,237.208,162.537,228.108,176.686,217.984z M128.013,264.174c47.136,36.284,92.628,71.304,139.725,107.557
			c-46.442,35.583-92.028,70.509-139.725,107.048C128.013,406.473,128.013,336.691,128.013,264.174z M486.649,497
			c-115.886,0-231.771,0-350.605,0c3.729-4,5.655-6.74,8.188-8.688c51.667-39.707,103.442-79.272,155.087-119.009
			c9.045-6.961,17.377-7.411,26.643-0.27c51.604,39.789,103.357,79.381,155.065,119.038c2.518,1.932,5.054,3.837,7.584,5.754
			C487.957,494.884,487.303,495.941,486.649,497z M496.987,478.414c-46.809-35.845-92.397-70.756-139.31-106.677
			c47.025-36.18,92.348-71.05,139.31-107.188C496.987,336.475,496.987,406.396,496.987,478.414z"/>
	</g>
</g>
<g id="Layer_1_copy_8" display="none">
	<g display="inline">
		<path fill-rule="evenodd" clip-rule="evenodd" d="M311.584,289.618c8.822,0,16.257-1.851,22.305-5.551
			c3.518-2.121,7.483-5.773,11.895-10.955l2.306,13.68h15.167v-58.811h-45.65v18.29h25.353c-1.14,7.144-4.163,12.919-9.069,17.328
			c-4.907,4.409-11.202,6.612-18.886,6.612c-7.832,0-14.82-2.795-20.966-8.385c-6.146-5.59-9.219-15.112-9.219-28.57
			c0-13.356,2.837-23.361,8.513-30.015c5.675-6.654,12.924-9.981,21.748-9.981c4.609,0,8.797,0.818,12.564,2.454
			c6.74,2.974,10.979,8.204,12.714,15.687h22.528c-1.24-10.557-6.085-19.368-14.536-26.431
			c-8.451-7.063-19.641-10.595-33.568-10.595c-16.06,0-28.972,5.35-38.736,16.049c-9.765,10.699-14.647,24.917-14.647,42.648
			c0,17.536,4.833,31.356,14.498,41.46C285.165,284.59,297.061,289.618,311.584,289.618z"/>
		<path fill-rule="evenodd" clip-rule="evenodd" d="M0,0v625h625V0H0z M448.199,217.818c14.328,10.144,26.993,19.108,41.937,29.687
			c-14.451,11.253-27.046,21.056-41.228,32.1c-0.404-3.827-0.688-5.285-0.69-6.747C448.188,255.395,448.199,237.932,448.199,217.818
			z M194.646,132.433c0.002-1.164,0.418-2.329,0.822-4.433c78.623,0,156.41,0,235.472,0c0,14.021,0,27.45,0,40.879
			c0,38.149,0.318,76.305-0.351,114.442c-0.098,5.499-3.539,12.633-7.804,16.08c-23.255,18.803-47.433,36.46-70.876,55.041
			c-6.187,4.907-10.157,5.59-16.712,0.304c-15.449-12.455-29.066-12.638-44.576-0.26c-7.051,5.624-11.211,4.772-17.728-0.409
			c-23.094-18.361-46.88-35.854-69.962-54.23c-3.923-3.122-8-8.963-8.051-13.588C194.346,234.987,194.581,183.71,194.646,132.433z
			 M176.686,217.984c0,21.063,0,39.975,0,61.695c-14.3-11.103-27.133-21.068-41.351-32.106
			C149.82,237.208,162.537,228.108,176.686,217.984z M128.013,264.174c47.136,36.284,92.628,71.304,139.725,107.557
			c-46.442,35.583-92.028,70.509-139.725,107.048C128.013,406.473,128.013,336.691,128.013,264.174z M486.649,497
			c-115.886,0-231.771,0-350.605,0c3.729-4,5.655-6.74,8.188-8.688c51.667-39.707,103.442-79.272,155.087-119.009
			c9.045-6.961,17.377-7.411,26.643-0.27c51.604,39.789,103.357,79.381,155.065,119.038c2.518,1.932,5.054,3.837,7.584,5.754
			C487.957,494.884,487.303,495.941,486.649,497z M496.987,478.414c-46.809-35.845-92.397-70.756-139.31-106.677
			c47.025-36.18,92.348-71.05,139.31-107.188C496.987,336.475,496.987,406.396,496.987,478.414z"/>
	</g>
</g>
<g id="Layer_1_copy_5" display="none">
	<g display="inline">
		<path fill-rule="evenodd" clip-rule="evenodd" d="M238.948,405.146h-16.386c-0.478,0-1.076,0.598-1.076,1.315v43.415
			c0,0.598,0.598,1.076,1.076,1.076h16.386c0.717,0,1.315-0.479,1.315-1.076v-43.415
			C240.264,405.743,239.666,405.146,238.948,405.146z"/>
		<path fill-rule="evenodd" clip-rule="evenodd" d="M225.784,198.618h-39.441c-1.152,0-2.591,1.439-2.591,3.166v104.505
			c0,1.439,1.439,2.591,2.591,2.591h39.441c1.728,0,3.167-1.151,3.167-2.591V201.784
			C228.95,200.058,227.511,198.618,225.784,198.618z"/>
		<path fill-rule="evenodd" clip-rule="evenodd" d="M158.579,403.71h-18.658v16.744h18.658c0.837,0,1.196-0.598,1.196-1.315v-14.112
			C159.775,404.428,159.417,403.71,158.579,403.71z"/>
		<path fill-rule="evenodd" clip-rule="evenodd" d="M158.579,435.284h-18.658v17.821h18.658c0.837,0,1.196-0.599,1.196-1.196
			v-15.309C159.775,436.002,159.417,435.284,158.579,435.284z"/>
		<path fill-rule="evenodd" clip-rule="evenodd" d="M318.84,404.188h-12.917c-1.435,0-2.511,1.076-2.511,2.393v24.278h18.299
			v-24.278C321.71,405.146,320.514,404.188,318.84,404.188z"/>
		<path fill-rule="evenodd" clip-rule="evenodd" d="M0,0v625h625V0H0z M180.346,458.128c0,6.34-4.186,10.286-10.764,10.286H119.23
			v-80.73h49.754c6.578,0,10.764,4.187,10.764,10.167v17.939c0,5.501-3.588,10.764-11.003,12.558
			c7.415,1.794,11.601,6.817,11.601,12.199V458.128z M261.074,458.966c0,5.621-3.827,9.448-9.448,9.448h-41.501
			c-5.621,0-9.448-3.827-9.448-9.448v-61.834c0-5.621,3.827-9.448,9.448-9.448h41.501c5.621,0,9.448,3.827,9.448,9.448V458.966z
			 M279.043,328.169c0,13.53-9.212,22.743-22.744,22.743h-99.897c-13.531,0-22.744-9.213-22.744-22.743V179.33
			c0-13.531,9.212-22.744,22.744-22.744H256.3c13.531,0,22.744,9.213,22.744,22.744V328.169z M342.521,468.414H321.71v-20.093
			h-18.299v20.093h-20.811v-71.282c0-5.621,3.827-9.448,9.449-9.448h41.023c5.621,0,9.448,3.827,9.448,9.448V468.414z
			 M404.471,468.414l-10.046-25.595h-8.851v25.595h-20.811v-80.73h50.711c4.903,0,9.09,3.947,9.09,9.09v36.957
			c0,4.903-4.187,9.089-9.09,9.089h-0.599l9.927,25.595H404.471z M378.656,244.104v106.808h-46.062V156.586h46.062l58.153,107.096
			V156.586h46.062v194.326H435.37L378.656,244.104z M505.77,451.909c0,9.209-7.535,16.505-16.386,16.505h-43.415v-80.73h43.415
			c8.851,0,16.386,7.296,16.386,16.386V451.909z"/>
		<path fill-rule="evenodd" clip-rule="evenodd" d="M479.218,405.026h-12.438v45.926h12.438c3.469,0,5.86-2.392,5.86-5.859v-34.207
			C485.078,407.418,482.687,405.026,479.218,405.026z"/>
		<path fill-rule="evenodd" clip-rule="evenodd" d="M402.797,405.026h-17.223v21.527h17.223c0.479,0,1.076-0.598,1.076-1.076
			v-19.256C403.873,405.624,403.275,405.026,402.797,405.026z"/>
	</g>
</g>
<g id="Layer_1_copy_6" display="none">
	<g display="inline">
		<path fill-rule="evenodd" clip-rule="evenodd" d="M330.45,470.259h-14.995v23.97h14.995c0.568,0,1.022-0.567,1.022-1.022v-21.812
			C331.473,470.827,331.019,470.259,330.45,470.259z"/>
		<path fill-rule="evenodd" clip-rule="evenodd" d="M177.989,469.464h-12.269c-1.363,0-2.386,1.022-2.386,2.271v23.062h17.381
			v-23.062C180.716,470.372,179.58,469.464,177.989,469.464z"/>
		<path fill-rule="evenodd" clip-rule="evenodd" d="M256.379,470.259h-14.996v23.97h14.996c0.567,0,1.022-0.567,1.022-1.022v-21.812
			C257.401,470.827,256.946,470.259,256.379,470.259z"/>
		<path fill-rule="evenodd" clip-rule="evenodd" d="M0,0v625h625V0H0z M200.482,530.468h-19.767v-19.085h-17.381v19.085h-19.767
			v-67.707c0-5.339,3.635-8.974,8.975-8.974h38.965c5.34,0,8.975,3.635,8.975,8.974V530.468z M277.167,501.84
			c0,4.544-3.976,8.634-8.633,8.634h-27.151v19.994h-19.767v-76.681h46.918c4.657,0,8.633,3.748,8.633,8.633V501.84z
			 M351.239,501.84c0,4.544-3.977,8.634-8.634,8.634h-27.15v19.994h-19.768v-76.681h46.918c4.657,0,8.634,3.748,8.634,8.633V501.84z
			 M413.837,530.468H369.76v-76.681h19.652v60.095h24.425V530.468z M481.432,498.887c0,4.998-3.976,9.088-8.634,9.088h-10.11v22.493
			h-19.767v-22.493h-10.225c-4.657,0-8.634-4.09-8.634-9.088v-45.1h19.767v35.33c0,0.567,0.682,1.136,1.25,1.136h15.791
			c0.682,0,0.795-0.568,0.795-1.136v-35.33h19.767V498.887z M476.706,366.991c-30.201,43.768-73.412,64.543-125.355,65.452
			c-74.867,1.307-149.774,0.356-224.666,0.345c-1.494,0-2.988-0.304-4.396-0.457c-3.366-17.145-3.559-18.829,11.709-25.847
			c13.662-6.279,19.484-14.896,16.874-29.741c-0.93-5.286-0.149-10.875-0.149-17.493c9.041,0,17.243,0,25.447,0
			c21.485,0,42.972,0.155,64.455-0.105c5.469-0.067,8.722,1.102,11.308,6.589c6.895,14.634,18.297,22.484,35.26,21.16
			c7.932-0.619,15.969-0.439,23.928-0.04c18.938,0.954,33.315-7.148,43.77-22.263c3.457-4.997,7.165-6.977,12.842-6.178
			c0.903,0.126,1.84,0.017,2.761,0.017c20.567-0.006,20.567-0.006,27.915-19.745c30.938,0,61.297,0,94.011,0
			C486.878,348.775,482.605,358.444,476.706,366.991z M503.4,288.665c-0.32,3.972-0.828,7.938-1.479,11.868
			c-0.598,3.594-1.508,7.136-2.438,11.422c-32.389,0-63.939,0-94.793,0c0-25.436,0.553-50.511-0.217-75.544
			c-0.43-14.028-2.285-28.131-4.836-41.953c-5.532-29.987-23.577-48.822-54.112-51.723c-31.63-3.004-63.524-3.191-96.542-4.666
			c0,59.175,0,116.139,0,173.677c-33.205,0-65.248,0-98.164,0c0-3.748,0-7.053,0-10.356c0-53.747-0.129-107.494,0.163-161.24
			c0.037-6.78-1.827-11.008-8.079-13.533c-2.815-1.139-5.18-3.457-8.023-4.451c-12.625-4.417-16.813-13.036-12.412-26.952
			c1.813-0.081,4.729-0.325,7.646-0.326c72.789-0.019,145.593-0.947,218.361,0.279c60.172,1.014,108.104,25.798,137.049,80.556
			C504.216,211.085,506.536,249.578,503.4,288.665z"/>
	</g>
</g>
<g id="Layer_1_copy_7" display="none">
	<path display="inline" d="M578.131,0H46.869H-0.004v46.877V101v436v41.124V625h46.873h531.262H625v-46.722
		c0-0.052,0.004-0.103,0.004-0.154V101V46.877V0H578.131z M419.948,263.426c0,75.018-55.668,161.497-157.505,161.497
		c-31.245,0-60.355-9.399-84.853-25.479c4.326,0.516,8.746,0.773,13.206,0.773c25.932,0,49.81-9.077,68.754-24.297
		c-24.229-0.451-44.658-16.866-51.714-39.41c3.377,0.666,6.858,1.009,10.425,1.009c5.052,0,9.949-0.665,14.59-1.997
		c-25.348-5.189-44.428-28.148-44.428-55.667v-0.687c7.472,4.224,16.027,6.794,25.081,7.072
		c-14.851-10.187-24.623-27.555-24.623-47.234c0-10.395,2.724-20.159,7.492-28.57c27.319,34.383,68.101,56.955,114.106,59.317
		c-0.949-4.152-1.428-8.469-1.428-12.915c0-31.348,24.793-56.762,55.341-56.762c15.933,0,30.327,6.88,40.396,17.911
		c12.643-2.534,24.475-7.259,35.182-13.759c-4.135,13.251-12.91,24.383-24.348,31.398c11.199-1.375,21.871-4.417,31.786-8.928
		c-7.39,11.376-16.789,21.355-27.608,29.373C419.908,258.493,419.948,260.963,419.948,263.426z"/>
</g>
<g id="Layer_10" display="none">
	<g display="inline">
		<path d="M277.824,364.458c30.274-17.41,60.311-34.677,90.535-52.044c-30.253-17.46-60.308-34.813-90.535-52.259
			C277.824,294.982,277.824,329.56,277.824,364.458z"/>
		<path d="M0,0v46.882V109v422v47.118V625h625v-46.882V531V109V46.882V0H0z M486.343,321.112
			c-0.187,11.003-0.773,21.999-1.482,32.98c-0.522,8.183-1.36,16.351-2.369,24.489c-0.967,7.782-2.055,15.621-5.119,22.916
			c-5.978,14.217-16.687,23.044-31.771,26.043c-7.595,1.511-15.377,2.355-23.108,2.885c-15.52,1.089-31.062,1.969-46.61,2.527
			c-15.85,0.58-31.728,0.688-47.592,0.952c-5.075,0.086-10.15,0.015-15.225,0.015c0,0.114,0,0.222-0.003,0.336
			c-19.132-0.379-38.268-0.723-57.399-1.152c-8.208-0.187-16.418-0.43-24.619-0.873c-10.001-0.537-19.998-1.131-29.97-2.026
			c-7.259-0.651-14.583-1.317-21.673-2.885c-18.788-4.152-30.213-16.058-34.591-34.698c-1.933-8.24-2.881-16.651-3.687-25.07
			c-2.015-21.168-2.856-42.387-2.477-63.634c0.204-11.261,0.776-22.521,1.485-33.761c0.522-8.261,1.356-16.522,2.38-24.741
			c0.92-7.445,1.868-14.955,4.889-21.906c5.655-13.051,15.266-21.899,29.018-25.771c4.796-1.346,9.847-1.926,14.819-2.52
			c6.396-0.766,12.825-1.253,19.25-1.761c4.671-0.365,9.346-0.637,14.028-0.83c10.957-0.465,21.913-0.967,32.869-1.253
			c12.381-0.329,24.766-0.616,37.154-0.623c20.207-0.021,40.424,0.079,60.626,0.373c12.777,0.179,25.535,0.68,38.292,1.281
			c10.301,0.48,20.596,1.196,30.875,2.062c8.505,0.708,17.074,1.389,25.278,3.923c15.642,4.825,25.563,15.355,29.794,31.162
			c1.997,7.431,3.071,15.041,3.931,22.686C485.906,275.124,486.736,298.097,486.343,321.112z"/>
	</g>
</g>
<g id="Layer_11" display="none">
	<path display="inline" d="M624.993,537V89V46.882V0H0.004v46.882V89v448H0v88h625v-88H624.993z M365.589,301.841v-26.924
		c0-12.206,3.386-20.531,20.896-20.531l22.335-0.007v-37.719c-3.865-0.508-17.116-1.661-32.551-1.661
		c-32.193,0-54.228,19.65-54.228,55.738v31.105H285.62v42.172h36.422v108.205H188.216c-8.517,0-15.431-6.908-15.431-15.428V188.217
		c0-8.519,6.914-15.427,15.431-15.427h248.573c8.52,0,15.428,6.908,15.428,15.427V436.79c0,8.52-6.908,15.428-15.428,15.428h-71.2
		V344.013h36.323l5.426-42.172H365.589z"/>
</g>
<g id="Layer_12" display="none">
	<g display="inline">
		<path d="M329.316,293.083c-12.164,0.817-24.302,1.438-35.97,5.533c-24.967,8.765-36.689,31.94-28.764,57.095
			c4.292,13.625,14.452,20.855,28.737,20.225c13.762-0.609,23.069-8.463,30.159-19.388c8.974-13.829,10.613-29.438,10.375-43.716
			c0-6.145-0.124-10.579,0.039-15.007C334.016,294.479,333.355,292.812,329.316,293.083z"/>
		<path d="M0,0v625h625V0H0z M334.016,246.103c-0.744-7.686,0.2-15.518-1.859-23.135c-2.388-8.839-7.52-15.225-16.054-18.885
			c-21.84-9.367-46.604,1.863-53.128,24.586c-2.223,7.739-5.817,10.974-14.3,9.608c-12.297-1.981-24.782-2.799-37.187-4.116
			c-9.989-1.063-12.708-4.636-10.448-14.346c6.093-26.179,20.882-45.944,45.395-57.066c35.937-16.306,72.954-17.763,109.949-3.732
			c27.222,10.324,41.748,30.749,44.271,59.829c1.729,19.949,0.447,39.922,0.941,56.506c0,19.736,0.367,36.113-0.105,52.465
			c-0.462,15.969,4.163,29.848,13.884,42.477c10.072,13.084,9.713,13.768-3.055,24.707c-8.633,7.398-17.182,14.896-25.77,22.35
			c-8.972,7.787-12.254,7.712-21.244-0.38c-5.173-4.657-9.823-9.765-13.886-15.425c-7.92-11.029-8.163-11.252-17.704-2.172
			c-24.112,22.944-53.267,28.766-84.821,24.006c-33.213-5.012-54.282-30.31-56.376-65.409
			c-2.886-48.373,22.478-81.687,71.411-93.684c20.257-4.964,40.93-7.214,61.668-8.714
			C332.127,255.099,334.686,253.013,334.016,246.103z M461.244,417.065c-5.132,4.225-10.299,8.439-15.741,12.245
			c-41.761,29.184-98.105,46.284-160.823,46.265c-47.299-0.426-98.696-16.103-144.993-48.085c-2.735-1.889-5.443-3.83-8.038-5.904
			c-1.525-1.219-3.1-2.864-1.693-4.939c1.244-1.834,3.361-1.714,5.296-1.024c1.562,0.559,3.055,1.302,4.586,1.949
			c105.177,44.462,209.088,42.2,311.684-8.461c0.993-0.491,1.986-0.985,2.963-1.506c3.448-1.837,6.956-2.747,9.581,1.066
			C466.664,412.445,463.802,414.96,461.244,417.065z M495.246,398.05c-1.287,15.733-6.035,30.346-16.212,42.759
			c-1.801,2.197-3.67,6.045-7.116,4.239c-3.349-1.756-0.454-5.012,0.172-7.413c2.718-10.423,6.192-20.691,6.763-31.549
			c0.56-10.663-2.079-13.449-12.817-13.153c-10.811,0.299-21.415,2.376-32.011,4.436c-2.236,0.435-5.33,2.333-6.627-0.833
			c-1.159-2.834,1.877-4.302,3.794-5.701c13.27-9.69,28.561-12.739,41.383-13.321C494.172,377.451,496.729,379.932,495.246,398.05z"
			/>
	</g>
</g>
</svg>
